<?xml version="1.0" standalone="no"?>
<!DOCTYPE svg PUBLIC "-//W3C//DTD SVG 20010904//EN"
 "http://www.w3.org/TR/2001/REC-SVG-20010904/DTD/svg10.dtd">
<svg version="1.0" xmlns="http://www.w3.org/2000/svg"
 width="8192.000000pt" height="3984.000000pt" viewBox="0 0 8192.000000 3984.000000"
 preserveAspectRatio="xMidYMid meet">

<g transform="translate(0.000000,3984.000000) scale(0.100000,-0.100000)"
fill="#000000" stroke="none">
<path d="M74218 28433 c-21 -48 -120 -266 -273 -598 -45 -99 -116 -254 -158
-345 -42 -91 -155 -337 -251 -548 -97 -210 -176 -387 -176 -392 0 -7 323 -9
933 -8 l932 3 798 930 c438 512 811 947 828 968 l30 37 -1321 0 -1321 0 -21
-47z"/>
<path d="M49820 26643 c-998 -34 -1940 -264 -2830 -690 -263 -125 -720 -385
-720 -408 0 -6 100 -175 221 -376 324 -533 325 -534 342 -537 9 -2 76 29 149
69 1611 883 3568 987 5259 278 1960 -821 3337 -2597 3613 -4664 26 -191 37
-324 44 -543 17 -468 -22 -931 -114 -1375 l-25 -117 29 -43 c50 -72 186 -306
266 -455 187 -347 338 -711 432 -1045 42 -145 35 -145 96 -2 125 287 259 674
337 965 44 165 121 507 135 600 3 19 12 78 21 130 194 1222 54 2533 -390 3670
-122 313 -303 692 -459 964 -946 1645 -2495 2844 -4307 3335 -181 49 -217 58
-454 107 -224 46 -548 92 -805 115 -130 11 -706 26 -840 22z"/>
<path d="M59692 19588 l3 -6233 1585 0 1585 0 3 2503 2 2502 2295 0 2295 0 0
-2505 0 -2505 1595 0 1595 0 0 6235 0 6235 -1595 0 -1595 0 0 -2405 0 -2405
-2295 0 -2295 0 0 2405 0 2405 -1590 0 -1590 0 2 -6232z"/>
<path d="M73100 19585 l0 -6235 1585 0 1585 0 0 6235 0 6235 -1585 0 -1585 0
0 -6235z"/>
<path d="M1235 19510 l0 -6300 1798 0 1797 0 0 2556 0 2556 273 -5 c298 -5
350 -13 532 -77 254 -91 442 -229 605 -445 148 -198 279 -428 525 -930 84
-170 312 -632 508 -1025 195 -393 564 -1138 821 -1655 256 -517 470 -947 474
-955 8 -13 246 -15 2030 -18 l2021 -2 -38 82 c-42 92 -849 1797 -1011 2138
-56 118 -237 501 -402 850 -165 349 -316 664 -335 700 -178 323 -624 933 -875
1195 -146 154 -293 254 -563 384 -135 66 -461 201 -484 201 -6 0 -11 4 -11 8
0 5 26 15 58 21 89 20 374 107 511 157 350 127 590 254 855 453 589 443 1008
1054 1210 1761 172 603 195 1387 61 2055 -134 670 -453 1269 -906 1699 -494
471 -1071 704 -2029 820 -614 75 -666 76 -4250 76 l-3175 0 0 -6300z m5500
3750 c403 -29 698 -108 899 -240 141 -93 278 -263 350 -436 73 -174 100 -330
100 -569 0 -149 -4 -198 -23 -285 -84 -393 -341 -707 -669 -821 -106 -37 -517
-129 -807 -181 -115 -21 -153 -22 -937 -25 l-818 -4 0 1285 0 1286 883 0 c494
0 943 -5 1022 -10z"/>
<path d="M13760 19510 l0 -6300 4880 0 4880 0 0 1425 0 1425 -3090 0 -3090 0
2 1243 3 1242 2783 3 2782 2 0 1280 0 1280 -2782 2 -2783 3 -3 1003 -2 1002
3000 0 3000 0 0 1345 0 1345 -4790 0 -4790 0 0 -6300z"/>
<path d="M25598 19510 l-3 -6300 1793 0 1792 0 0 6300 0 6300 -1790 0 -1790 0
-2 -6300z"/>
<path d="M30930 24255 l0 -1555 1825 0 1825 0 0 -4745 0 -4745 1790 0 1790 0
0 4745 0 4745 1820 0 1820 0 2 1555 3 1555 -5437 0 -5438 0 0 -1555z"/>
<path d="M49590 25157 c-3 -2 -61 -7 -129 -11 -514 -27 -1177 -180 -1711 -394
-497 -199 -941 -457 -1224 -710 -274 -245 -890 -634 -1586 -1002 -96 -51 -178
-95 -183 -99 -4 -4 2 -16 13 -26 113 -102 819 130 1625 533 391 195 726 310
1160 396 1088 216 2451 65 3765 -417 426 -157 937 -410 958 -476 7 -22 -105
-9 -537 65 -212 36 -426 72 -476 79 -339 52 -447 67 -665 94 -944 116 -1710
139 -2465 75 -1437 -122 -2534 -607 -3194 -1414 -173 -212 -374 -508 -411
-606 -27 -73 -25 -90 10 -126 25 -24 35 -28 60 -23 16 4 132 55 257 114 438
208 783 320 1228 400 420 75 616 92 1150 98 335 4 484 1 675 -11 344 -23 768
-71 1050 -117 536 -89 1083 -203 1381 -289 1090 -315 2188 -1059 3269 -2215
205 -220 326 -358 572 -651 110 -131 193 -222 222 -241 73 -49 214 -100 353
-130 110 -23 152 -27 303 -27 160 -1 179 1 223 21 27 13 47 29 47 38 0 9 -19
51 -42 93 -1016 1876 -2627 3270 -4378 3788 -643 191 -1511 315 -2480 355
-525 22 -1357 1 -1792 -45 -65 -6 -118 -9 -118 -5 0 15 271 125 445 182 968
315 2321 337 3725 61 685 -135 1404 -460 2075 -939 615 -439 1147 -948 1735
-1660 182 -221 239 -285 252 -285 4 0 8 96 8 213 0 930 -270 1768 -800 2487
-243 329 -606 689 -965 955 -890 662 -2063 1088 -3273 1190 -246 20 -763 20
-983 0 -90 -9 -234 -27 -319 -40 -157 -24 -321 -39 -550 -50 l-125 -6 45 27
c25 15 96 51 159 81 637 303 1500 421 2326 318 407 -51 988 -185 1365 -314
1170 -401 2056 -1064 2673 -2001 486 -739 780 -1600 893 -2615 10 -98 18 -273
21 -505 l5 -355 46 -65 c25 -36 89 -122 141 -193 73 -98 97 -123 102 -110 13
36 50 335 64 519 109 1428 -357 2856 -1293 3961 -809 955 -1880 1608 -3097
1888 -256 58 -440 88 -820 130 -67 7 -779 19 -785 12z"/>
<path d="M48190 21079 c-435 -66 -547 -79 -885 -103 -115 -8 -388 -20 -605
-26 -271 -8 -415 -16 -459 -26 -153 -34 -312 -144 -400 -275 -45 -67 -85 -182
-95 -272 -14 -118 41 -224 140 -273 50 -24 69 -28 143 -28 120 1 213 29 421
130 227 109 303 129 460 121 138 -7 276 -39 434 -101 176 -69 361 -168 711
-381 367 -223 587 -335 809 -411 162 -55 200 -77 204 -120 4 -38 -13 -83 -34
-91 -9 -3 -58 2 -108 13 -119 25 -319 23 -561 -5 -413 -48 -503 -40 -726 67
-94 46 -126 71 -330 261 -191 179 -273 242 -374 292 -76 38 -93 42 -178 47
-140 7 -257 -35 -387 -137 -27 -22 -76 -52 -107 -68 -53 -25 -68 -28 -163 -28
-91 1 -114 4 -170 27 -35 15 -66 25 -68 23 -3 -3 13 -24 35 -48 84 -91 123
-193 123 -323 0 -64 -7 -92 -66 -251 -298 -807 -451 -1378 -413 -1541 33 -146
180 -187 509 -143 391 53 413 53 619 -14 138 -45 163 -45 207 -1 29 29 34 41
34 80 0 63 -19 104 -70 150 -63 57 -134 85 -229 93 -92 7 -122 21 -105 50 16
27 74 53 120 53 55 0 180 -33 251 -66 87 -40 209 -167 259 -269 38 -77 39 -82
39 -185 0 -99 -2 -109 -33 -172 -55 -112 -104 -166 -186 -203 -71 -33 -183
-65 -224 -65 -15 0 -26 9 -33 28 -13 33 -55 79 -91 98 -40 21 -163 18 -229 -5
-163 -56 -180 -82 -204 -311 -8 -74 -22 -160 -31 -190 -9 -30 -18 -88 -21
-128 l-5 -73 28 6 c71 16 137 42 237 93 157 79 162 79 337 -10 236 -120 406
-166 653 -175 l159 -6 -6 -31 c-10 -49 -57 -108 -116 -144 -129 -77 -258 -87
-440 -32 -154 47 -244 47 -415 2 -66 -18 -141 -32 -167 -32 -27 0 -48 -4 -48
-8 0 -5 14 -34 31 -66 37 -68 36 -85 -21 -206 -22 -47 -36 -86 -31 -88 5 -2
22 9 37 24 87 80 231 110 469 98 317 -16 345 -12 409 55 49 51 83 37 93 -38
12 -85 -80 -210 -217 -297 -36 -22 -97 -59 -136 -82 -101 -59 -178 -144 -203
-227 -41 -131 -44 -180 -22 -290 26 -128 75 -229 146 -300 66 -65 116 -95 220
-132 76 -26 88 -28 260 -27 101 0 209 6 245 13 85 16 639 160 855 221 767 220
1403 536 1740 866 156 153 296 425 352 686 26 118 25 438 0 558 -46 216 -142
426 -302 664 -196 291 -202 314 -186 710 12 294 3 564 -24 740 -19 125 -68
318 -100 398 -14 34 -24 63 -22 65 2 1 32 -41 68 -94 167 -254 411 -520 612
-670 253 -188 525 -305 812 -348 183 -27 491 -15 662 26 48 12 71 24 62 34 -3
2 -30 7 -60 11 -467 53 -992 365 -1549 923 -251 251 -372 391 -591 685 -257
344 -471 561 -782 793 -401 299 -772 463 -977 432z m-1424 -1430 c89 -27 162
-81 321 -232 76 -73 156 -143 176 -156 20 -12 37 -27 37 -32 0 -26 -189 -119
-274 -135 l-38 -7 8 34 c23 87 -5 196 -58 233 -21 15 -23 14 -44 -30 -29 -60
-54 -85 -117 -119 -61 -33 -67 -40 -67 -79 l0 -30 -30 29 c-16 15 -36 47 -44
71 -14 41 -13 43 10 65 51 48 55 162 7 219 -45 54 -94 72 -186 69 -72 -3 -81
-1 -88 16 -15 40 -9 54 31 75 84 43 235 46 356 9z m707 -525 c123 -62 126 -71
71 -200 -100 -232 -383 -359 -607 -271 -229 91 -310 173 -266 270 l11 24 51
-20 c35 -13 78 -20 132 -20 134 -2 238 39 430 168 61 40 114 74 118 74 4 1 31
-11 60 -25z"/>
<path d="M49115 20990 c-3 -5 29 -27 72 -48 317 -157 591 -381 1358 -1112 448
-427 657 -614 893 -800 310 -242 636 -406 826 -413 72 -3 82 13 24 39 -67 30
-204 123 -308 209 -145 121 -306 272 -635 595 -607 596 -880 840 -1211 1082
-305 222 -587 366 -844 432 -110 27 -165 33 -175 16z"/>
<path d="M49960 20947 c0 -7 37 -28 83 -47 203 -82 431 -215 614 -357 213
-166 405 -351 761 -733 191 -204 367 -370 470 -441 88 -61 218 -123 290 -138
72 -15 142 -14 142 2 0 6 -32 39 -71 71 -96 81 -187 184 -440 501 -322 402
-466 553 -697 728 -275 208 -639 357 -1004 411 -128 19 -148 20 -148 3z"/>
<path d="M52530 19505 c0 -3 15 -22 34 -42 138 -155 206 -333 206 -538 0 -145
-17 -237 -86 -476 -153 -525 -170 -674 -108 -918 46 -183 147 -343 328 -519
208 -202 451 -363 842 -557 138 -69 258 -125 267 -125 37 0 13 29 -60 75 -137
87 -313 225 -418 329 -247 245 -368 493 -397 808 -10 104 -9 184 5 450 14 256
16 348 7 443 -34 380 -162 638 -467 943 -116 115 -153 146 -153 127z"/>
<path d="M50230 18520 c0 -103 75 -478 127 -635 118 -359 316 -607 578 -726
193 -87 346 -113 755 -129 411 -15 533 -34 683 -103 48 -22 90 -37 93 -34 4 3
-15 41 -42 84 -134 217 -295 379 -459 460 -119 60 -226 87 -506 128 -192 29
-282 50 -394 94 -166 64 -318 175 -455 333 -90 103 -231 314 -299 447 -49 95
-81 127 -81 81z"/>
<path d="M53575 18343 c-15 -100 -21 -252 -13 -348 26 -343 188 -572 523 -740
158 -79 286 -124 605 -216 616 -176 825 -270 1024 -459 122 -116 190 -221 240
-372 14 -41 31 -74 39 -76 34 -7 35 466 2 653 -42 240 -145 440 -283 550 -172
137 -359 191 -823 240 -134 14 -300 35 -368 46 -490 81 -756 294 -895 717 -22
65 -41 67 -51 5z"/>
<path d="M54280 16523 c0 -5 64 -30 143 -57 446 -149 673 -350 751 -666 13
-52 33 -183 45 -290 24 -219 46 -310 95 -408 35 -70 119 -173 139 -171 14 0
74 72 220 261 l105 137 -25 63 c-14 35 -52 142 -85 238 -71 212 -138 351 -215
447 -139 173 -360 296 -671 373 -198 49 -502 93 -502 73z"/>
<path d="M52946 16483 c-11 -27 -8 -259 5 -326 28 -157 109 -297 243 -425 124
-118 263 -203 711 -437 284 -148 434 -239 595 -359 172 -129 264 -217 447
-435 16 -20 24 -23 33 -15 9 9 3 49 -26 165 -117 483 -310 842 -571 1060 -197
165 -344 235 -763 362 -118 36 -252 81 -297 101 -150 64 -255 152 -322 269
-34 60 -45 68 -55 40z"/>
<path d="M51684 16439 c-176 -13 -349 -66 -437 -134 -106 -80 -167 -249 -347
-960 -133 -524 -198 -758 -289 -1032 -264 -795 -569 -1332 -986 -1731 -64 -62
-115 -115 -113 -117 2 -2 125 -9 273 -16 290 -12 627 -2 945 27 180 17 356 41
374 51 37 22 194 175 280 273 239 272 409 534 606 935 83 170 183 395 235 530
170 449 180 488 172 685 -4 74 -15 185 -27 245 -84 448 -88 637 -26 1085 7 52
10 98 7 102 -14 16 -204 48 -337 58 -153 11 -182 11 -330 -1z"/>
<path d="M52980 15113 c-99 -797 -394 -1604 -844 -2307 -25 -39 -31 -56 -21
-56 24 0 422 135 555 188 398 160 911 417 929 465 12 32 59 381 71 530 21 262
8 607 -30 772 -34 152 -30 147 -148 223 -114 74 -476 282 -491 282 -5 0 -14
-44 -21 -97z"/>
<path d="M54092 14085 c2 -212 6 -385 10 -385 12 0 488 364 488 374 0 1 -39
32 -87 69 -49 36 -157 124 -242 196 -85 72 -158 131 -163 131 -5 0 -8 -170 -6
-385z"/>
</g>
</svg>
